<?xml version="1.0" encoding="UTF-8" standalone="no"?><!DOCTYPE svg PUBLIC "-//W3C//DTD SVG 1.1//EN" "http://www.w3.org/Graphics/SVG/1.1/DTD/svg11.dtd"><svg width="100%" height="100%" viewBox="0 0 5359 3763" version="1.1" xmlns="http://www.w3.org/2000/svg" xmlns:xlink="http://www.w3.org/1999/xlink" xml:space="preserve" xmlns:serif="http://www.serif.com/" style="fill-rule:evenodd;clip-rule:evenodd;stroke-linejoin:round;stroke-miterlimit:2;"><g><path d="M4312.083,3210.938l0,-719.808l0,0.008l0,-921.021c-124,-44.642 -275.975,-82.237 -436.258,-111.092c-82.421,-14.838 -171.125,-27.533 -265.458,-38.221l0.154,1229.675c-299.004,40.462 -587.254,54.967 -758.504,54.967c-305.704,0 -595.704,-24.792 -858.354,-67.796l0,590.804c236.092,30.579 486.45,47.15 748.037,47.15c294.175,0 588.658,-16.146 868.896,-50.279l0.071,537.175l1094.458,0l0,-551.562l-393.041,0Zm380.5,-999.588c-32.167,78.371 -106.333,144.996 -207.792,201.567l0,625.037c433.25,-145.779 757.042,-363.217 872.917,-665.021c-88.25,-14.242 -576.833,-143.771 -665.125,-161.583Zm-2629.104,-779.637l647.033,890.842l681.012,-922.1c-185.362,-13.696 -389.042,-20.629 -609.904,-20.629c-243.262,0 -487.95,17.808 -718.142,51.888Zm2282.563,-31.696c6.25,2.166 12.291,4.375 18.371,6.571c4.296,1.562 8.713,3.113 12.962,4.692c72.125,26.658 133.917,55.125 185.542,84.929c124.583,73.192 143.042,99.387 143.042,99.387l540.875,0.096l0,-803.013l-644.917,0c0,28.304 -0.75,74.596 -0.75,104.567c-82.958,-27.887 -179.542,-55.217 -289.083,-80.804l0,-262.379l393.041,0l0,-552.762l-1202.054,1.117l-501.517,665.221c-70.187,-1.637 -142.033,-2.537 -215.725,-2.537c-120.542,0 -239.304,2.962 -355.838,8.804l-502.596,-671.487l-1208.254,-0l0,551.646l398.763,0l0,339.217c-678.421,216.717 -1117.904,580.233 -1117.904,1057.846c0,448.5 430.642,839.246 1117.904,1077.883l0,181.929l-398.763,0l0,551.562l1101.871,0l-0.179,-559.087c0.029,0.004 0.063,0.008 0.096,0.017l0,-597.421c-0.096,-0.021 -0.196,-0.037 -0.292,-0.058l-0.367,-1130.913c-168.408,35.325 -324.746,80.008 -461.508,133.442c-94.512,36.925 -174.254,74.088 -240.858,110.038l0,665.833c-271.887,-128.754 -432.367,-282.229 -432.367,-433.225c0,-81.292 51.05,-164.954 144.038,-245.437c2.529,-2.196 5.204,-4.379 7.796,-6.571c2.829,-2.383 5.613,-4.771 8.512,-7.15c4.842,-3.983 9.842,-7.95 14.888,-11.912c0.533,-0.421 1.054,-0.838 1.587,-1.254c192.638,-150.65 531.504,-287.7 957.858,-373.579l0,-0.179c43.55,-8.804 88.021,-17.05 133.292,-24.738l0.175,0.242c253.154,-42.812 532.758,-67.738 827.937,-67.738c744.788,0 1248.375,76.371 1564.421,187.209Z" style="fill:#ca9a2c;fill-rule:nonzero;"/></g></svg>